<svg
 width="512.000000pt" height="512.000000pt" viewBox="0 0 512.000000 512.000000"
 preserveAspectRatio="xMidYMid meet">

<g transform="translate(0.000000,512.000000) scale(0.100000,-0.100000)"
fill="#000000" stroke="none">
<path d="M4816 4458 c-3 -18 -8 -64 -11 -103 -15 -179 -88 -383 -178 -497
l-29 -36 -47 20 c-251 109 -606 118 -876 24 -267 -93 -426 -240 -803 -746
-262 -352 -355 -464 -475 -576 -323 -300 -664 -396 -1322 -373 -560 20 -658
21 -742 6 -111 -21 -193 -59 -247 -117 -106 -113 -113 -255 -21 -445 70 -147
168 -267 318 -392 495 -412 1237 -624 2048 -584 537 27 974 133 1368 331 698
351 1171 955 1297 1655 25 138 25 417 0 533 -41 195 -112 345 -214 453 l-34
36 46 67 c118 172 209 466 217 701 l3 70 -147 3 -146 3 -5 -33z m-532 -844
c245 -47 420 -196 492 -418 21 -65 28 -108 31 -212 l6 -131 -119 -7 c-66 -4
-149 -13 -186 -20 l-67 -13 -11 56 c-36 191 -94 378 -118 385 -89 27 -218 38
-369 32 l-161 -6 -28 82 c-15 46 -38 106 -50 134 l-23 52 49 21 c147 63 365
81 554 45z m-810 -355 c27 -79 56 -229 56 -285 0 -18 3 -35 8 -38 4 -2 70 6
147 20 77 13 201 27 276 30 l135 7 22 -99 c26 -121 42 -263 42 -385 0 -82 2
-91 18 -86 9 2 84 26 166 51 209 66 437 98 422 61 -3 -9 -13 -43 -22 -77 -53
-207 -184 -462 -328 -638 -387 -474 -1034 -783 -1810 -865 -168 -17 -557 -20
-704 -5 -489 51 -881 177 -1183 379 -220 147 -409 374 -409 490 0 74 -68 69
845 60 349 -4 415 -2 520 14 437 66 706 202 995 503 123 128 215 241 431 532
216 290 328 427 340 415 4 -4 19 -42 33 -84z"/>
</g>
</svg>
